<?xml version="1.0" encoding="utf-8"?>
<!-- Generator: Adobe Illustrator 15.1.0, SVG Export Plug-In . SVG Version: 6.00 Build 0)  -->
<!DOCTYPE svg PUBLIC "-//W3C//DTD SVG 1.1//EN" "http://www.w3.org/Graphics/SVG/1.1/DTD/svg11.dtd">
<svg version="1.1" id="Layer_1" xmlns="http://www.w3.org/2000/svg" xmlns:xlink="http://www.w3.org/1999/xlink" x="0px" y="0px"
	 width="34px" height="34px" viewBox="0 0 34 34" enable-background="new 0 0 34 34" xml:space="preserve">
<g>
	<path fill="#FFFFFF" d="M8.193,20.743c0.659-1.232,1.483-2.259,2.479-3.08c0.996-0.829,1.91-1.241,2.742-1.241
		c1.125,0,1.686,0.581,1.686,1.739c0,1.108-0.467,2.123-1.405,3.037c-0.936,0.914-2.168,1.572-3.703,1.979
		c1.664,2.989,2.906,4.477,3.726,4.477c0.587,0,1.207-0.505,1.853-1.53c0.203,0.155,0.305,0.301,0.305,0.441
		c0,0.408-0.402,0.977-1.208,1.691c-0.808,0.723-1.457,1.096-1.947,1.109c-0.876,0.042-2.376-1.816-4.497-5.592l-0.314-0.597
		l-0.582,5.381l-1.97,0.808l0.041-0.364l0.105-0.983l0.105-0.914L6.887,15.56c0.297-2.732,1.302-5.056,3.018-6.98
		c1.715-1.924,3.633-2.887,5.76-2.887c0.438,0,0.859,0.049,1.266,0.147l-1.934,1.895c-0.504-0.148-0.973-0.225-1.422-0.225
		c-2.607,0-4.134,2.038-4.59,6.114L8.193,20.743z M7.953,22.785c1.407,0,2.585-0.321,3.527-0.954
		c0.949-0.633,1.418-1.422,1.418-2.356c0-0.945-0.33-1.418-0.996-1.418c-0.609,0-1.29,0.447-2.039,1.344
		C9.113,20.303,8.48,21.432,7.953,22.785z"/>
	<path fill="#FFFFFF" d="M20.464,22.017c0.959-1.66,2.007-2.998,3.162-4.036c1.149-1.04,2.157-1.559,3.047-1.559
		c1.267,0,1.899,1.078,1.899,3.229c0,2.639-0.844,4.892-2.511,6.753c-1.68,1.872-3.698,2.809-6.058,2.809
		c-0.294,0-0.561-0.022-0.785-0.046l-1.075-0.103c-0.057,0-0.225-0.015-0.498-0.028c0.193-0.666,0.333-1.369,0.407-2.104
		l1.262-11.365c0.305-2.732,1.313-5.062,3.028-6.984c1.715-1.926,3.628-2.89,5.75-2.89c0.435,0,0.856,0.049,1.265,0.147
		l-1.934,1.895c-0.505-0.148-0.976-0.225-1.411-0.225c-2.62,0-4.153,2.039-4.604,6.117L20.464,22.017z M19.9,27.222
		c0.82,0.445,1.636,0.671,2.446,0.671c1.21,0,2.194-0.695,2.944-2.101c0.75-1.396,1.126-3.212,1.126-5.461
		c0-1.309-0.353-1.96-1.056-1.96c-0.797,0-1.712,0.596-2.775,1.772c-1.442,1.61-2.281,3.492-2.521,5.656L19.9,27.222z"/>
</g>
</svg>
